<svg width="30" height="30" viewBox="0 0 30 30" fill="none" xmlns="http://www.w3.org/2000/svg">
<path d="M15 13.75C16.3807 13.75 17.5 12.6307 17.5 11.25C17.5 9.86929 16.3807 8.75 15 8.75C13.6193 8.75 12.5 9.86929 12.5 11.25C12.5 12.6307 13.6193 13.75 15 13.75Z" stroke="#F6F7F8" stroke-width="1.5625"/>
<path d="M20 18.75C20 20.1313 20 21.25 15 21.25C10 21.25 10 20.1313 10 18.75C10 17.3687 12.2375 16.25 15 16.25C17.7625 16.25 20 17.3687 20 18.75Z" stroke="#F6F7F8" stroke-width="1.5625"/>
<path d="M3.75 13.0212C3.75 9.02375 3.75 7.025 4.2225 6.3525C4.69375 5.68125 6.5725 5.0375 10.3313 3.75125L11.0475 3.50625C13.0063 2.835 13.985 2.5 15 2.5C16.0137 2.5 16.9937 2.835 18.9525 3.50625L19.6687 3.75125C23.4275 5.0375 25.3062 5.68125 25.7775 6.3525C26.25 7.025 26.25 9.025 26.25 13.0212V14.9887C26.25 18.12 25.2037 20.535 23.75 22.38M3.99125 17.5C5.0625 22.8725 9.47 25.6412 12.3738 26.9087C13.275 27.3025 13.7262 27.5 15 27.5C16.275 27.5 16.725 27.3025 17.6262 26.9087C18.35 26.5937 19.165 26.1837 20 25.6662" stroke="#F6F7F8" stroke-width="1.5625" stroke-linecap="round"/>
</svg>
