<svg width="30" height="30" viewBox="0 0 30 30" fill="none" xmlns="http://www.w3.org/2000/svg">
<path d="M15 7.5V22.5M18.75 11.875C18.75 10.15 17.0712 8.75 15 8.75C12.9288 8.75 11.25 10.15 11.25 11.875C11.25 13.6 12.9288 15 15 15C17.0712 15 18.75 16.4 18.75 18.125C18.75 19.85 17.0712 21.25 15 21.25C12.9288 21.25 11.25 19.85 11.25 18.125" stroke="#F6F7F8" stroke-width="1.5625" stroke-linecap="round"/>
<path d="M8.75 4.1725C10.6494 3.07363 12.8056 2.49662 15 2.5C21.9037 2.5 27.5 8.09625 27.5 15C27.5 21.9037 21.9037 27.5 15 27.5C8.09625 27.5 2.5 21.9037 2.5 15C2.5 12.7237 3.10875 10.5875 4.1725 8.75" stroke="#F6F7F8" stroke-width="1.5625" stroke-linecap="round"/>
</svg>
