<svg width="35" height="35" viewBox="0 0 35 35" fill="none" xmlns="http://www.w3.org/2000/svg">
<path d="M32.0834 17.5C32.0834 9.44565 25.5545 2.91669 17.5001 2.91669C9.44571 2.91669 2.91675 9.44565 2.91675 17.5C2.91675 25.5544 9.44571 32.0834 17.5001 32.0834" stroke="black" stroke-width="1.5625" stroke-linecap="round" stroke-linejoin="round"/>
<path d="M18.9584 2.98962C18.9584 2.98962 23.3334 8.75004 23.3334 17.5M16.0417 32.0105C16.0417 32.0105 11.6667 26.25 11.6667 17.5C11.6667 8.75004 16.0417 2.98962 16.0417 2.98962M3.83545 22.6042H17.5M3.83545 12.3959H31.1646" stroke="black" stroke-width="1.5625" stroke-linecap="round" stroke-linejoin="round"/>
<path d="M31.9069 26.129C32.6273 26.5723 32.5821 27.65 31.8413 27.7346L28.0978 28.159L26.4192 31.5307C26.0867 32.2 25.0586 31.8719 24.888 31.0436L23.0577 22.1244C22.9134 21.4244 23.5434 20.984 24.1515 21.3588L31.9069 26.129Z" stroke="black" stroke-width="1.5625"/>
</svg>
