<svg width="35" height="35" viewBox="0 0 35 35" fill="none" xmlns="http://www.w3.org/2000/svg">
<path d="M14.5834 29.995C9.58279 31.6823 5.41633 29.995 2.91675 24.7916" stroke="black" stroke-width="1.5625" stroke-linecap="round" stroke-linejoin="round"/>
<path d="M14.5834 32.0833V27.3554C14.5834 26.4833 14.8517 25.725 15.2834 25.0396C15.5809 24.57 15.3767 23.9021 14.8415 23.7562C10.4038 22.5341 7.29175 20.5727 7.29175 14.0656C7.29175 12.3739 7.84591 10.7844 8.82008 9.39894C9.06216 9.05477 9.18466 8.88269 9.21383 8.7281C9.243 8.5706 9.19196 8.3679 9.08987 7.95956C8.67716 6.3029 8.70487 4.54269 9.32321 2.95748C9.32321 2.95748 10.6022 2.53894 13.5145 4.35748C14.1795 4.7731 14.512 4.98165 14.8051 5.02831C15.0982 5.07498 15.489 4.97727 16.2707 4.78185C17.3883 4.50476 18.5361 4.36808 19.6876 4.37498C20.839 4.37006 21.9866 4.50721 23.1045 4.78331C23.8861 4.97873 24.2784 5.07498 24.5715 5.02977C24.8632 4.9831 25.1957 4.77456 25.8607 4.35894C28.773 2.5404 30.052 2.95894 30.052 2.95894C30.6703 4.54415 30.698 6.30435 30.2853 7.96102C30.1832 8.36935 30.1336 8.57352 30.1628 8.7281C30.192 8.88269 30.313 9.05623 30.5551 9.4004C31.5292 10.7858 32.0834 12.3754 32.0834 14.0671C32.0834 20.5741 28.9713 22.5356 24.5336 23.7548C23.9984 23.9021 23.7942 24.57 24.0917 25.0381C24.5234 25.7235 24.7917 26.4818 24.7917 27.3554V32.0833" stroke="black" stroke-width="1.5625" stroke-linecap="round" stroke-linejoin="round"/>
</svg>
