<svg width="64" height="64" viewBox="0 0 64 64" fill="none" xmlns="http://www.w3.org/2000/svg">
<path d="M48.8001 22.4C52.7765 22.4 56.0001 19.1765 56.0001 15.2C56.0001 11.2236 52.7765 8 48.8001 8C44.8236 8 41.6001 11.2236 41.6001 15.2C41.6001 19.1765 44.8236 22.4 48.8001 22.4Z" stroke="#F6F7F8" stroke-width="3"/>
<path d="M20 36.8H41.6M20 45.2H34.4M8 32C8 43.3136 8 48.9704 11.5136 52.484C15.032 56 20.6864 56 32 56C43.3136 56 48.9704 56 52.484 52.484C56 48.9728 56 43.3136 56 32V28.4M35.6 8H32C20.6864 8 15.0296 8 11.5136 11.5136C9.1784 13.8512 8.3936 17.1368 8.132 22.4" stroke="#F6F7F8" stroke-width="3" stroke-linecap="round"/>
</svg>
