<svg width="64" height="64" viewBox="0 0 64 64" fill="none" xmlns="http://www.w3.org/2000/svg">
<path d="M31.9999 15.4084L30.6436 16.7073C30.8193 16.8887 31.03 17.0329 31.263 17.1314C31.496 17.2299 31.7467 17.2807 31.9999 17.2807C32.2531 17.2807 32.5037 17.2299 32.7367 17.1314C32.9697 17.0329 33.1804 16.8887 33.3561 16.7073L31.9999 15.4084ZM19.4418 42.686C19.0554 42.3699 18.5587 42.2195 18.0608 42.2678C17.563 42.316 17.1048 42.559 16.787 42.9432C16.4693 43.3275 16.318 43.8215 16.3665 44.3167C16.4151 44.8119 16.6594 45.2676 17.0457 45.5836L19.4418 42.686ZM7.74017 35.1696C7.97998 35.6056 8.38408 35.9289 8.86357 36.0685C9.34307 36.2081 9.85869 36.1525 10.297 35.914C10.7353 35.6755 11.0604 35.2736 11.2008 34.7967C11.3411 34.3199 11.2853 33.807 11.0455 33.3711L7.74017 35.1696ZM43.2996 34.5377L41.976 35.8716C42.3286 36.2178 42.8041 36.412 43.2996 36.412C43.7951 36.412 44.2707 36.2178 44.6232 35.8716L43.2996 34.5377ZM50.7014 52.0308C51.0942 51.7319 51.3531 51.2913 51.4221 50.8042C51.4911 50.3171 51.3647 49.8226 51.0702 49.4273C50.7757 49.0321 50.3368 48.768 49.8481 48.6919C49.3595 48.6158 48.8603 48.7339 48.4585 49.0207L50.7014 52.0308ZM54.2226 43.2455C54.1002 43.4623 54.0224 43.7013 53.9937 43.9484C53.9651 44.1954 53.9862 44.4457 54.0558 44.6846C54.1255 44.9235 54.2422 45.1462 54.3993 45.3397C54.5564 45.5332 54.7507 45.6937 54.9708 45.8118C55.1909 45.9299 55.4324 46.0032 55.6813 46.0274C55.9302 46.0517 56.1814 46.0264 56.4204 45.9531C56.6594 45.8798 56.8813 45.7599 57.0731 45.6003C57.265 45.4408 57.423 45.2449 57.538 45.024L54.2226 43.2455ZM8.76742 24.4934C8.76742 19.1229 11.819 14.6166 15.9858 12.7206C20.0345 10.8796 25.4747 11.3667 30.6436 16.7073L33.3561 14.112C27.2278 7.7747 20.1049 6.72806 14.4186 9.31343C8.85784 11.8439 5 17.719 5 24.4934H8.76742ZM23.2017 50.3796C24.4901 51.3888 25.8715 52.4629 27.2705 53.2772C28.6695 54.0891 30.2669 54.751 31.9999 54.751V51.0041C31.2213 51.0041 30.307 50.7044 29.1718 50.0424C28.034 49.3829 26.8561 48.4737 25.535 47.437L23.2017 50.3796ZM58.9997 24.4934C58.9997 17.719 55.1444 11.8439 49.5812 9.31343C43.8949 6.72806 36.777 7.7747 30.6436 14.1095L33.3561 16.7073C38.525 11.3692 43.9652 10.8796 48.0139 12.7206C52.1807 14.6166 55.2323 19.1204 55.2323 24.4934H58.9997ZM25.535 47.437C23.5357 45.8708 21.5038 44.3746 19.4443 42.6885L17.0482 45.5811C19.1329 47.2872 21.3381 48.9183 23.2017 50.3796L25.535 47.437ZM11.048 33.3736C9.53499 30.6569 8.74967 27.599 8.76742 24.4934H5C5 28.5851 6.05488 32.1022 7.74268 35.1721L11.048 33.3736ZM46.3688 50.552C45.7631 51.0255 45.1272 51.4594 44.465 51.8509C43.8999 52.1632 43.5382 52.2531 43.3021 52.2531V56C44.4474 56 45.4646 55.5853 46.296 55.1257C47.1248 54.6711 47.9285 54.0716 48.6293 53.552L46.3688 50.552ZM58.9997 39.2863C59.0061 36.813 58.0524 34.4328 56.3374 32.6417L53.6123 35.2321C54.6094 36.2687 55.2323 37.6976 55.2323 39.2888L58.9997 39.2863ZM37.9775 53.5495C38.6757 54.0741 39.482 54.6711 40.3083 55.1282C41.1371 55.5853 42.1568 56 43.3021 56V52.2531C43.066 52.2531 42.7044 52.1632 42.1393 51.8534C41.477 51.461 40.8411 51.0263 40.2355 50.552L37.9775 53.5495ZM31.372 39.2863C31.372 37.6976 31.9948 36.2712 32.992 35.2321L30.2669 32.6442C28.5519 34.4353 27.5982 36.8155 27.6045 39.2888L31.372 39.2863ZM32.992 35.2321C33.497 34.6975 34.1056 34.27 34.7811 33.9755C35.4566 33.681 36.1851 33.5256 36.9226 33.5185C38.417 33.511 40.1953 34.123 41.976 35.8716L44.6258 33.2063C42.2322 30.8557 39.5272 29.7591 36.9051 29.7716C35.661 29.7808 34.4317 30.04 33.291 30.5336C32.1502 31.0273 31.1216 31.7452 30.2669 32.6442L32.992 35.2321ZM48.6293 53.5495C49.2999 53.0499 49.9529 52.5853 50.7039 52.0308L48.461 49.0207C47.7829 49.5178 47.0294 50.0599 46.3688 50.552L48.6293 53.5495ZM57.5405 45.024C58.5054 43.2643 59.0074 41.2906 58.9997 39.2863H55.2323C55.2323 40.7975 54.8556 42.0889 54.2277 43.2455L57.5405 45.024ZM40.2355 50.552C39.6377 50.1073 38.9897 49.6402 38.3769 49.1931L36.1415 52.2081C36.7945 52.6852 37.3923 53.1149 37.975 53.5495L40.2355 50.552ZM38.3769 49.1931C34.5793 46.4079 31.372 43.6627 31.372 39.2888H27.6045C27.6045 45.7684 32.5072 49.5453 36.1415 52.2081L38.3769 49.1931ZM36.1717 49.1706C34.4361 50.3946 33.1125 51.0041 31.9999 51.0041V54.751C34.3733 54.751 36.5358 53.507 38.3492 52.2281L36.1717 49.1706ZM56.3374 32.6417C56.286 32.5888 56.2341 32.5388 56.1817 32.4869L53.5194 35.1347L53.6123 35.2321L56.3374 32.6417ZM56.1817 32.4869C55.3185 31.6203 54.29 30.9338 53.1566 30.4675C52.0232 30.0013 50.8077 29.7647 49.5812 29.7716C46.9942 29.7916 44.3344 30.8907 41.9785 33.2063L44.6258 35.8716C46.3814 34.148 48.132 33.531 49.6113 33.5185C50.3383 33.5154 51.0587 33.6571 51.7298 33.935C52.401 34.213 53.0095 34.6193 53.5194 35.1347L56.1817 32.4869ZM56.5258 34.6701C58.1683 31.5277 59.0173 28.035 58.9997 24.4934H55.2323C55.2323 27.7233 54.4537 30.496 53.1778 32.9515L56.5258 34.6701Z" fill="#F6F7F8"/>
</svg>
