<svg width="64" height="64" viewBox="0 0 64 64" fill="none" xmlns="http://www.w3.org/2000/svg">
<path d="M16 21.3333H26.6667" stroke="#F6F7F8" stroke-width="3" stroke-linecap="round" stroke-linejoin="round"/>
<path d="M58.6667 28C58.6667 27.7947 58.6667 26.5787 58.6613 26.4933C58.5653 25.1573 57.4213 24.0933 55.9813 24.0053C55.8907 24 55.7813 24 55.5573 24H48.6187C43.856 24 40 27.5813 40 32C40 36.4187 43.8587 40 48.6133 40H55.5547C55.7787 40 55.888 40 55.9813 39.9947C57.4213 39.9067 58.568 38.8427 58.6613 37.5067C58.6667 37.4213 58.6667 36.2053 58.6667 36" stroke="#F6F7F8" stroke-width="3" stroke-linecap="round"/>
<path d="M47.9999 34.6667C49.4727 34.6667 50.6666 33.4728 50.6666 32C50.6666 30.5272 49.4727 29.3333 47.9999 29.3333C46.5272 29.3333 45.3333 30.5272 45.3333 32C45.3333 33.4728 46.5272 34.6667 47.9999 34.6667Z" fill="#F6F7F8"/>
<path d="M34.6666 10.6667C44.7226 10.6667 49.7519 10.6667 52.8746 13.792C55.0319 15.9467 55.7012 19.008 55.9066 24M26.6666 53.3334H34.6666C44.7226 53.3334 49.7519 53.3334 52.8746 50.208C55.0319 48.0534 55.7012 44.992 55.9066 40M23.9999 10.6667C15.6959 10.6933 11.2932 10.9547 8.45858 13.792C5.33325 16.9147 5.33325 21.944 5.33325 32C5.33325 42.056 5.33325 47.0854 8.45858 50.208C10.1999 51.952 12.5332 52.7227 15.9999 53.0614" stroke="#F6F7F8" stroke-width="3" stroke-linecap="round"/>
</svg>
