<svg width="64" height="64" viewBox="0 0 64 64" fill="none" xmlns="http://www.w3.org/2000/svg">
<path d="M29.9497 29.9483C30.8617 28.5161 31.3177 27.8 31.9993 27.8C32.6809 27.8 33.1369 28.514 34.0489 29.9483L34.2841 30.3179C34.5433 30.7253 34.6729 30.9269 34.8745 31.0613C35.0785 31.1957 35.3305 31.2461 35.8345 31.3448L36.2905 31.4372C38.0617 31.7879 38.9473 31.9622 39.1585 32.5544C39.3697 33.1487 38.7649 33.7661 37.5577 35.0009L37.2457 35.3201C36.9025 35.6708 36.7297 35.8451 36.6529 36.0635C36.5761 36.2819 36.6025 36.515 36.6529 36.9833L36.7009 37.4096C36.8833 39.0581 36.9745 39.8834 36.4249 40.2488C35.8729 40.6142 35.0425 40.2803 33.3841 39.6125L32.9569 39.4403C32.4841 39.2513 32.2489 39.1568 31.9993 39.1568C31.7497 39.1568 31.5145 39.2513 31.0417 39.4403L30.6145 39.6125C28.9561 40.2824 28.1257 40.6142 27.5737 40.2488C27.0217 39.8834 27.1153 39.0581 27.2977 37.4096L27.3457 36.9833C27.3961 36.515 27.4225 36.2819 27.3457 36.0635C27.2689 35.8472 27.0961 35.6708 26.7529 35.3201L26.4409 35.0009C25.2337 33.7661 24.6289 33.1487 24.8401 32.5544C25.0513 31.9622 25.9369 31.7879 27.7081 31.4372L28.1641 31.3448C28.6681 31.2461 28.9201 31.1978 29.1241 31.0613C29.3257 30.9269 29.4553 30.7253 29.7145 30.3179L29.9497 29.9483Z" stroke="#F6F7F8" stroke-width="3"/>
<path d="M56 31.5758C56 26.0486 56 23.2829 54.152 21.4874C53.9825 21.3217 53.8031 21.1639 53.6144 21.0149C51.5624 19.4 48.4016 19.4 42.0848 19.4H41.1872C38.42 19.4 37.0352 19.4 35.744 19.0787C35.0354 18.9015 34.3525 18.6534 33.7088 18.3395C32.5376 17.7704 31.5584 16.9115 29.6 15.2L28.28 14.045C27.6224 13.4696 27.296 13.184 26.9504 12.932C25.464 11.8539 23.6406 11.1931 21.7184 11.0357C21.272 11 20.8064 11 19.88 11C17.7608 11 16.7024 11 15.8192 11.147C13.9228 11.4604 12.1784 12.2666 10.8135 13.4605C9.44867 14.6543 8.52673 16.1805 8.168 17.8397C8 18.6146 8 19.5428 8 21.395M55.9784 40.4C55.892 45.608 55.4504 48.5585 53.1872 50.5388C50.3768 53 45.8504 53 36.8 53H27.2C18.1496 53 13.6232 53 10.8128 50.5388C8 48.0797 8 44.1191 8 36.2V29.9" stroke="#F6F7F8" stroke-width="3" stroke-linecap="round"/>
</svg>
