<svg width="64" height="64" viewBox="0 0 64 64" fill="none" xmlns="http://www.w3.org/2000/svg">
<path d="M57 54H32C20.215 54 14.3225 54 10.66 50.777C7 47.5584 7 42.3708 7 32V25.4M7 10V16.6" stroke="#F6F7F8" stroke-width="3" stroke-linecap="round"/>
<path d="M49.5002 21L41.7052 29.6372C40.5127 30.9616 39.9152 31.6238 39.2302 31.9472C38.7103 32.1918 38.1321 32.325 37.5427 32.3361C36.9532 32.3472 36.3691 32.2358 35.8377 32.011C35.1377 31.714 34.5102 31.076 33.2502 29.8C31.9927 28.524 31.3627 27.886 30.6627 27.589C30.1315 27.3649 29.5478 27.2541 28.9588 27.2656C28.3698 27.2771 27.7922 27.4105 27.2727 27.655C26.5877 27.9762 25.9902 28.6384 24.7977 29.9606L17.0002 38.6" stroke="#F6F7F8" stroke-width="3" stroke-linecap="round"/>
</svg>
